HIERARCHY
ROOT Hips
{
	OFFSET -0.001795 -0.223333 0.028219
	CHANNELS 6 Xposition Yposition Zposition Zrotation Yrotation Xrotation 
	JOINT LeftUpLeg
	{
		OFFSET 0.069520 -0.091406 -0.006815
		CHANNELS 3 Zrotation Yrotation Xrotation
		JOINT LeftLeg
		{
			OFFSET 0.034277 -0.375199 -0.004496
			CHANNELS 3 Zrotation Yrotation Xrotation
			JOINT LeftFoot
			{
				OFFSET -0.013596 -0.397961 -0.043693
				CHANNELS 3 Zrotation Yrotation Xrotation
				JOINT LeftToe
				{
					OFFSET 0.026358 -0.055791 0.119288
					CHANNELS 3 Zrotation Yrotation Xrotation
					End Site
					{
						OFFSET 0.000000 0.000000 0.000000
					}
				}
			}
		}
	}
	JOINT RightUpLeg
	{
		OFFSET -0.067670 -0.090522 -0.004320
		CHANNELS 3 Zrotation Yrotation Xrotation
		JOINT RightLeg
		{
			OFFSET -0.038290 -0.382569 -0.008850
			CHANNELS 3 Zrotation Yrotation Xrotation
			JOINT RightFoot
			{
				OFFSET 0.015774 -0.398415 -0.042312
				CHANNELS 3 Zrotation Yrotation Xrotation
				JOINT RightToe
				{
					OFFSET -0.025372 -0.048144 0.123348
					CHANNELS 3 Zrotation Yrotation Xrotation
					End Site
					{
						OFFSET 0.000000 0.000000 0.000000
					}
				}
			}
		}
	}
	JOINT Spine
	{
		OFFSET -0.002533 0.108963 -0.026696
		CHANNELS 3 Zrotation Yrotation Xrotation
		JOINT Spine1
		{
			OFFSET 0.005487 0.135180 0.001092
			CHANNELS 3 Zrotation Yrotation Xrotation
			JOINT Spine2
			{
				OFFSET 0.001457 0.052922 0.025425
				CHANNELS 3 Zrotation Yrotation Xrotation
				JOINT Neck
				{
					OFFSET -0.002778 0.213870 -0.042857
					CHANNELS 3 Zrotation Yrotation Xrotation
					JOINT Head
					{
						OFFSET 0.005152 0.064970 0.051349
						CHANNELS 3 Zrotation Yrotation Xrotation
						End Site
						{
							OFFSET 0.000000 0.000000 0.000000
						}
					}
				}
				JOINT LeftShoulder
				{
					OFFSET 0.078845 0.121749 -0.034090
					CHANNELS 3 Zrotation Yrotation Xrotation
					JOINT LeftArm
					{
						OFFSET 0.090977 0.030469 -0.008868
						CHANNELS 3 Zrotation Yrotation Xrotation
						JOINT LeftForeArm
						{
							OFFSET 0.259612 -0.012772 -0.027456
							CHANNELS 3 Zrotation Yrotation Xrotation
							JOINT LeftHand
							{
								OFFSET 0.249234 0.008986 -0.001171
								CHANNELS 3 Zrotation Yrotation Xrotation
								End Site
								{
									OFFSET 0.000000 0.000000 0.000000
								}
							}
						}
					}
				}
				JOINT RightShoulder
				{
					OFFSET -0.081759 0.118833 -0.038615
					CHANNELS 3 Zrotation Yrotation Xrotation
					JOINT RightArm
					{
						OFFSET -0.096012 0.032551 -0.009143
						CHANNELS 3 Zrotation Yrotation Xrotation
						JOINT RightForeArm
						{
							OFFSET -0.253742 -0.013329 -0.021401
							CHANNELS 3 Zrotation Yrotation Xrotation
							JOINT RightHand
							{
								OFFSET -0.255298 0.007772 -0.005559
								CHANNELS 3 Zrotation Yrotation Xrotation
								End Site
								{
									OFFSET 0.000000 0.000000 0.000000
								}
							}
						}
					}
				}
			}
		}
	}
}
MOTION
Frames: 17
Frame Time: 0.050000
0.007277 0.953442 0.029654 0.916955 -16.162920 25.229907 5.558309 -0.153307 -29.810752 2.134885 -0.341000 2.058774 -1.145948 1.114186 14.273069 0.000000 0.000000 0.000000 -1.759664 2.740729 -23.477948 -8.954548 -0.424314 -10.838288 -1.590713 -13.428847 21.693738 0.000000 0.000000 0.000000 -2.443897 0.249738 12.406546 -0.160891 0.238775 1.110239 -5.860896 15.599591 0.500288 24.227068 -14.276933 -11.731882 0.000000 0.000000 0.000000 -1.952633 -17.045808 5.406443 -41.964582 -25.965406 3.964668 -41.219962 -68.194756 28.940730 0.000000 0.000000 0.000000 -11.148777 13.694875 4.261821 74.588358 21.603738 11.681592 -10.612997 42.698412 -1.771126 0.000000 0.000000 0.000000 
0.007481 0.955182 0.027824 0.967133 -15.865368 25.328762 5.389438 -0.218506 -29.866932 2.171148 -0.348386 2.127381 -1.029042 1.442729 14.690053 0.000000 0.000000 0.000000 -1.969481 2.732873 -23.622381 -8.999190 -0.451924 -11.135154 -1.462869 -13.457828 22.835474 0.000000 0.000000 0.000000 -2.095161 0.186641 13.582041 0.141275 0.083157 0.349011 -5.273077 15.927021 0.900608 24.462463 -13.951032 -12.909993 0.000000 0.000000 0.000000 -0.351114 -19.034893 6.162920 -41.142610 -31.716327 5.597928 -23.902915 -70.108835 17.518479 0.000000 0.000000 0.000000 -11.421470 16.494821 5.084572 72.807336 27.581027 15.501475 -15.521385 32.348788 -2.691630 0.000000 0.000000 0.000000 
0.008039 0.956275 0.025205 1.541047 -15.465701 25.912234 4.945152 -0.344613 -30.704947 1.887350 -0.304559 2.006119 -1.431565 1.095911 15.562803 0.000000 0.000000 0.000000 -2.567452 2.725264 -24.109786 -9.136758 -0.524793 -11.847928 -1.918909 -14.158395 23.511344 0.000000 0.000000 0.000000 -2.035187 0.187889 14.405078 0.747802 -0.189465 -0.189227 -4.917011 16.394312 1.234888 25.231603 -14.007671 -13.960663 0.000000 0.000000 0.000000 3.260243 -21.952650 7.157830 -40.182305 -39.873978 7.762347 1.771242 -68.245675 -0.374497 0.000000 0.000000 0.000000 -13.083797 19.793245 5.818498 71.073077 33.703377 19.568718 -18.909216 22.213929 -2.384123 0.000000 0.000000 0.000000 
0.008777 0.958225 0.022151 1.996466 -15.146095 26.394853 4.694216 -0.400755 -31.890900 1.877307 -0.320114 2.480205 -2.007790 0.526678 16.542767 0.000000 0.000000 0.000000 -3.043343 2.751393 -24.759441 -9.150359 -0.558133 -12.121887 -2.765358 -15.451368 24.383505 0.000000 0.000000 0.000000 -1.685657 0.132430 16.168562 0.886382 -0.248650 -0.498341 -4.644405 16.922511 0.717290 24.859222 -14.734431 -11.493627 0.000000 0.000000 0.000000 5.417738 -25.546520 8.237316 -35.322733 -49.008373 8.803470 17.166804 -58.443377 -8.586105 0.000000 0.000000 0.000000 -14.232149 23.191656 6.687506 66.935532 39.440182 22.108372 -17.709773 12.642455 -1.103378 0.000000 0.000000 0.000000 
0.009543 0.957371 0.019229 2.531091 -14.679773 26.636050 4.596697 -0.447108 -32.840887 1.708442 -0.309908 2.867020 -3.502522 -1.693576 16.508409 0.000000 0.000000 0.000000 -3.872710 2.758716 -25.656023 -9.056029 -0.494189 -11.329247 -2.918445 -15.502223 24.022397 0.000000 0.000000 0.000000 -1.285634 0.045388 17.765103 1.305246 -0.430859 -1.141339 -4.080117 17.262545 1.125912 25.324083 -14.967271 -11.718714 0.000000 0.000000 0.000000 8.437821 -28.201469 8.882621 -29.603751 -57.810788 8.298957 22.395038 -45.422429 -8.258555 0.000000 0.000000 0.000000 -16.490764 26.628798 7.204785 63.334134 44.261901 23.924100 -16.258321 5.296715 -0.201613 0.000000 0.000000 0.000000 
0.010048 0.955330 0.017300 2.758646 -14.680178 26.981042 4.445603 -0.446011 -33.940935 1.959041 -0.362101 3.319171 -3.411370 -1.595036 16.301279 0.000000 0.000000 0.000000 -4.756425 2.728696 -26.163775 -8.397356 -0.423962 -10.538068 -3.505424 -16.165802 23.088528 0.000000 0.000000 0.000000 -0.989177 -0.024418 18.347742 1.087821 -0.327681 0.366606 -3.776841 17.284949 -0.075752 25.352014 -15.060666 -11.308638 0.000000 0.000000 0.000000 9.705106 -30.727512 9.520441 -21.006541 -60.913530 4.518318 22.910427 -35.707795 -6.320570 0.000000 0.000000 0.000000 -18.783032 29.944625 7.654943 59.328979 47.199857 23.972594 -12.866946 1.230258 0.179109 0.000000 0.000000 0.000000 
0.010355 0.952875 0.016760 2.918677 -14.690037 26.939588 4.480371 -0.427041 -34.332614 2.012765 -0.397677 4.125864 -3.447339 -2.117729 14.788244 0.000000 0.000000 0.000000 -4.987919 2.742971 -26.520443 -7.951512 -0.310045 -9.251321 -3.397431 -15.818634 21.949689 0.000000 0.000000 0.000000 -0.716071 -0.087912 19.125929 0.468836 -0.060506 0.489109 -2.842572 17.421766 0.016100 25.396749 -15.330871 -10.802615 0.000000 0.000000 0.000000 8.822046 -30.613290 9.571760 -20.064436 -61.396179 4.185352 21.959627 -37.656180 -6.313688 0.000000 0.000000 0.000000 -17.090281 32.013312 8.781188 54.826028 47.310898 21.488582 -11.103855 -0.322891 0.270649 0.000000 0.000000 0.000000 
0.010423 0.951309 0.017553 3.271785 -14.443996 26.935306 3.907320 -0.599744 -34.638902 2.320092 -0.438485 3.926549 -3.494676 -2.087850 14.948737 0.000000 0.000000 0.000000 -5.852572 2.659999 -26.764627 -7.256028 -0.216570 -8.070651 -3.868588 -16.188264 20.483837 0.000000 0.000000 0.000000 -0.346083 -0.210547 18.494910 -0.001083 0.144901 0.735879 -1.815763 17.052133 0.560390 24.161957 -13.724263 -12.509024 0.000000 0.000000 0.000000 7.010702 -28.700402 9.155212 -22.562240 -57.787831 5.191799 24.157793 -49.969219 -9.882030 0.000000 0.000000 0.000000 -15.923035 32.287844 9.163351 54.780198 44.246046 19.331111 -10.421221 2.006326 0.082644 0.000000 0.000000 0.000000 
0.010446 0.951371 0.020052 3.004141 -14.025025 26.666214 3.568691 -0.745378 -34.009890 3.016869 -0.523830 3.494565 -3.042397 -1.536339 14.269913 0.000000 0.000000 0.000000 -5.549308 2.612522 -26.219482 -7.601289 -0.196655 -7.940845 -3.955359 -16.192218 20.073552 0.000000 0.000000 0.000000 -0.169052 -0.280095 17.972239 -0.213531 0.230992 0.718025 -0.808018 16.645762 1.212289 22.094627 -11.939364 -13.594674 0.000000 0.000000 0.000000 5.332824 -24.598912 7.999211 -30.849596 -50.470053 7.526028 31.381856 -71.299483 -21.154689 0.000000 0.000000 0.000000 -14.437588 29.333094 8.575083 58.426449 38.948893 17.576470 -10.201214 8.329384 -0.315540 0.000000 0.000000 0.000000 
0.010356 0.952836 0.023758 2.889644 -14.078559 25.856309 3.461417 -0.815820 -32.101815 3.109301 -0.498666 2.662120 -2.152392 -0.386082 13.400912 0.000000 0.000000 0.000000 -5.838031 2.442535 -24.931327 -6.933731 -0.243825 -8.409712 -3.712551 -15.707633 19.737764 0.000000 0.000000 0.000000 0.394425 -0.425700 16.862969 -0.616542 0.390029 0.100807 -0.312757 15.984808 2.672856 20.514742 -11.327514 -12.799583 0.000000 0.000000 0.000000 2.718322 -19.952591 6.572902 -36.610833 -41.277399 7.190313 175.555960 -85.292464 -173.167724 0.000000 0.000000 0.000000 -11.762766 25.289731 7.843859 59.917597 31.796716 13.436127 -6.372200 16.478333 -0.288711 0.000000 0.000000 0.000000 
0.010307 0.953294 0.027667 2.204174 -14.929894 25.561155 4.079060 -0.610436 -31.024593 3.092418 -0.475049 2.187836 -1.085014 1.128397 13.040425 0.000000 0.000000 0.000000 -5.992581 2.434713 -24.574471 -6.500673 -0.258946 -8.540427 -3.345310 -15.131894 19.039936 0.000000 0.000000 0.000000 0.616059 -0.455689 15.973250 -1.271478 0.686248 0.165807 0.478359 15.298196 2.521747 18.698311 -10.105908 -12.993780 0.000000 0.000000 0.000000 0.780738 -15.085592 4.947548 -41.481826 -29.910067 4.962101 -159.770613 -64.293037 151.309996 0.000000 0.000000 0.000000 -10.988447 21.336287 6.714795 61.968453 25.527654 10.133496 -1.650930 22.805276 0.501196 0.000000 0.000000 0.000000 
0.010284 0.953427 0.030194 1.877674 -14.968020 25.307852 4.069092 -0.631615 -30.089380 3.027033 -0.436679 1.558434 0.011617 2.789233 12.447477 0.000000 0.000000 0.000000 -6.216828 2.348056 -23.887213 -6.016904 -0.273735 -8.695971 -3.431423 -15.147184 18.564894 0.000000 0.000000 0.000000 0.816651 -0.494315 14.440089 -1.157164 0.638144 0.210789 0.559504 15.786550 3.318891 18.129080 -9.073192 -15.208716 0.000000 0.000000 0.000000 0.809658 -12.056951 3.894331 -44.962671 -22.867074 2.869301 -156.834642 -51.732507 137.141211 0.000000 0.000000 0.000000 -10.447696 18.026452 5.691000 62.673133 20.417716 7.336900 2.562702 28.999156 1.824653 0.000000 0.000000 0.000000 
0.010094 0.952547 0.030603 1.388580 -14.453188 25.223812 4.725733 -0.515268 -30.134953 2.870967 -0.430157 1.870352 -0.000183 2.879909 12.729298 0.000000 0.000000 0.000000 -6.133563 2.343360 -23.977970 -5.989257 -0.207872 -7.802268 -3.341826 -14.835479 18.045105 0.000000 0.000000 0.000000 1.587474 -0.660973 13.328879 -1.277599 0.674319 -0.202145 0.196573 16.956062 3.207404 19.275888 -9.572115 -15.706175 0.000000 0.000000 0.000000 0.341988 -12.795090 4.038068 -47.508844 -20.913933 2.298941 -155.066475 -50.638911 131.295772 0.000000 0.000000 0.000000 -9.081321 17.017827 5.552741 61.348992 18.498117 6.180156 4.325252 29.438447 2.354720 0.000000 0.000000 0.000000 
0.009883 0.951156 0.029020 1.387707 -13.381156 24.671423 4.955087 -0.554748 -30.033544 2.523089 -0.406232 2.397658 -0.302359 2.487928 12.592424 0.000000 0.000000 0.000000 -5.655865 2.286999 -23.547722 -6.507958 -0.136696 -7.069963 -3.945858 -15.686094 18.281510 0.000000 0.000000 0.000000 1.881943 -0.721946 12.622931 -1.101033 0.616402 0.705096 -1.071970 17.819396 1.663710 19.120607 -9.255669 -15.909918 0.000000 0.000000 0.000000 -1.260763 -15.415840 4.688876 -47.575900 -24.785506 3.935383 -153.896129 -61.301892 136.682189 0.000000 0.000000 0.000000 -8.038531 18.793268 6.358628 59.624506 19.689698 6.768839 -0.545644 26.261173 0.990613 0.000000 0.000000 0.000000 
0.009709 0.950151 0.026684 1.922962 -12.364489 23.571997 5.254249 -0.590473 -29.323969 1.530891 -0.290371 2.984919 -1.060083 1.268811 12.234171 0.000000 0.000000 0.000000 -6.113681 2.100949 -22.617994 -6.605799 -0.048758 -6.145430 -4.491924 -16.273629 17.917359 0.000000 0.000000 0.000000 1.717552 -0.680261 12.023592 -1.090611 0.602041 0.840210 -2.351169 18.846031 0.594935 20.778031 -9.977483 -16.492015 0.000000 0.000000 0.000000 -3.369540 -20.668189 6.262079 -45.040763 -33.256372 6.916407 -124.326174 -82.102397 116.103869 0.000000 0.000000 0.000000 -5.952144 21.265072 7.784496 55.499991 23.643662 7.986223 -3.780813 19.720912 0.153399 0.000000 0.000000 0.000000 
0.009779 0.949097 0.025546 2.226034 -12.121815 22.248898 5.210923 -0.635069 -28.473407 1.228320 -0.270944 3.756061 -2.327149 -0.909127 11.939842 0.000000 0.000000 0.000000 -6.223902 1.999780 -21.912383 -7.238566 0.069097 -5.180328 -4.110349 -15.663396 18.173715 0.000000 0.000000 0.000000 1.867804 -0.673579 11.121085 -1.810803 0.938307 1.383658 -3.748718 18.591220 -1.002921 21.718537 -10.905950 -15.480986 0.000000 0.000000 0.000000 -4.981532 -24.398799 7.577997 -44.081765 -36.704337 8.278597 -13.064262 -72.631490 8.758563 0.000000 0.000000 0.000000 -5.182546 24.096873 9.082350 53.784293 26.273075 8.881934 -5.928151 15.015684 -0.158504 0.000000 0.000000 0.000000 
0.010167 0.948963 0.026648 2.517726 -11.359763 21.281210 4.897492 -0.770321 -27.283208 0.998417 -0.221018 3.157319 -2.679635 -1.495801 11.657632 0.000000 0.000000 0.000000 -5.976091 1.852793 -20.441105 -7.837844 0.104645 -5.177680 -4.292748 -15.896679 18.766334 0.000000 0.000000 0.000000 1.105714 -0.507524 10.098781 -2.246022 1.129246 1.448829 -4.022208 17.568377 -1.860584 21.643379 -11.581036 -13.579222 0.000000 0.000000 0.000000 -5.906767 -25.492961 8.069829 -44.731508 -38.646254 9.344187 -12.044218 -59.078305 6.599793 0.000000 0.000000 0.000000 -5.419625 24.544233 9.136600 54.657576 27.220462 9.588293 -6.190206 14.737655 -0.177735 0.000000 0.000000 0.000000 
